<?xml version="1.0" encoding="UTF-8" standalone="no"?>
<!DOCTYPE svg PUBLIC "-//W3C//DTD SVG 1.1//EN"
 "http://www.w3.org/Graphics/SVG/1.1/DTD/svg11.dtd">
<!-- Generated by graphviz version 2.43.0 (0)
 -->
<!-- Title: G Pages: 1 -->
<svg width="1471pt" height="902pt"
 viewBox="0.00 0.00 1471.20 902.06" xmlns="http://www.w3.org/2000/svg" xmlns:xlink="http://www.w3.org/1999/xlink">
<g id="graph0" class="graph" transform="scale(1 1) rotate(0) translate(21.6 880.46)">
<title>G</title>
<polygon fill="#111111" stroke="transparent" points="-21.6,21.6 -21.6,-880.46 1449.6,-880.46 1449.6,21.6 -21.6,21.6"/>
<!-- app.controller.ts -->
<g id="node1" class="node">
<title>app.controller.ts</title>
<path fill="none" stroke="#c6c5fe" d="M366.83,-845.86C366.83,-845.86 270.17,-845.86 270.17,-845.86 266.33,-845.86 262.5,-842.03 262.5,-838.2 262.5,-838.2 262.5,-830.53 262.5,-830.53 262.5,-826.7 266.33,-822.86 270.17,-822.86 270.17,-822.86 366.83,-822.86 366.83,-822.86 370.67,-822.86 374.5,-826.7 374.5,-830.53 374.5,-830.53 374.5,-838.2 374.5,-838.2 374.5,-842.03 370.67,-845.86 366.83,-845.86"/>
<text text-anchor="middle" x="318.5" y="-830.66" font-family="Arial" font-size="14.00" fill="#c6c5fe">app.controller.ts</text>
</g>
<!-- app.service.ts -->
<g id="node2" class="node">
<title>app.service.ts</title>
<path fill="none" stroke="#cfffac" d="M620.83,-858.86C620.83,-858.86 536.17,-858.86 536.17,-858.86 532.33,-858.86 528.5,-855.03 528.5,-851.2 528.5,-851.2 528.5,-843.53 528.5,-843.53 528.5,-839.7 532.33,-835.86 536.17,-835.86 536.17,-835.86 620.83,-835.86 620.83,-835.86 624.67,-835.86 628.5,-839.7 628.5,-843.53 628.5,-843.53 628.5,-851.2 628.5,-851.2 628.5,-855.03 624.67,-858.86 620.83,-858.86"/>
<text text-anchor="middle" x="578.5" y="-843.66" font-family="Arial" font-size="14.00" fill="#cfffac">app.service.ts</text>
</g>
<!-- app.controller.ts&#45;&gt;app.service.ts -->
<g id="edge1" class="edge">
<title>app.controller.ts&#45;&gt;app.service.ts</title>
<path fill="none" stroke="#757575" d="M374.53,-837.14C416.73,-839.26 474.88,-842.19 518.12,-844.37"/>
<polygon fill="#757575" stroke="#757575" points="518.06,-847.87 528.22,-844.88 518.41,-840.88 518.06,-847.87"/>
</g>
<!-- app.module.ts -->
<g id="node3" class="node">
<title>app.module.ts</title>
<path fill="none" stroke="#c6c5fe" d="M191.33,-451.86C191.33,-451.86 104.67,-451.86 104.67,-451.86 100.83,-451.86 97,-448.03 97,-444.2 97,-444.2 97,-436.53 97,-436.53 97,-432.7 100.83,-428.86 104.67,-428.86 104.67,-428.86 191.33,-428.86 191.33,-428.86 195.17,-428.86 199,-432.7 199,-436.53 199,-436.53 199,-444.2 199,-444.2 199,-448.03 195.17,-451.86 191.33,-451.86"/>
<text text-anchor="middle" x="148" y="-436.66" font-family="Arial" font-size="14.00" fill="#c6c5fe">app.module.ts</text>
</g>
<!-- app.module.ts&#45;&gt;app.controller.ts -->
<g id="edge2" class="edge">
<title>app.module.ts&#45;&gt;app.controller.ts</title>
<path fill="none" stroke="#757575" d="M149.82,-451.96C153.36,-495.4 170.19,-651.52 235,-758.36 249.32,-781.97 273.09,-802.74 291.44,-816.58"/>
<polygon fill="#757575" stroke="#757575" points="289.82,-819.72 299.95,-822.79 293.94,-814.07 289.82,-819.72"/>
</g>
<!-- app.module.ts&#45;&gt;app.service.ts -->
<g id="edge3" class="edge">
<title>app.module.ts&#45;&gt;app.service.ts</title>
<path fill="none" stroke="#757575" d="M152.77,-451.94C162.95,-482.23 193.11,-565.62 235,-625.36 308.07,-729.58 324.1,-770.55 438,-827.36 462.64,-839.65 492.58,-845 518.4,-847.14"/>
<polygon fill="#757575" stroke="#757575" points="518.23,-850.64 528.44,-847.83 518.7,-843.65 518.23,-850.64"/>
</g>
<!-- reports/report.entity.ts -->
<g id="node4" class="node">
<title>reports/report.entity.ts</title>
<path fill="none" stroke="#ff6c60" d="M1226.83,-95.86C1226.83,-95.86 1095.17,-95.86 1095.17,-95.86 1091.33,-95.86 1087.5,-92.03 1087.5,-88.2 1087.5,-88.2 1087.5,-80.53 1087.5,-80.53 1087.5,-76.7 1091.33,-72.86 1095.17,-72.86 1095.17,-72.86 1226.83,-72.86 1226.83,-72.86 1230.67,-72.86 1234.5,-76.7 1234.5,-80.53 1234.5,-80.53 1234.5,-88.2 1234.5,-88.2 1234.5,-92.03 1230.67,-95.86 1226.83,-95.86"/>
<text text-anchor="middle" x="1161" y="-80.66" font-family="Arial" font-size="14.00" fill="#ff6c60">reports/report.entity.ts</text>
</g>
<!-- app.module.ts&#45;&gt;reports/report.entity.ts -->
<g id="edge4" class="edge">
<title>app.module.ts&#45;&gt;reports/report.entity.ts</title>
<path fill="none" stroke="#757575" d="M150.18,-428.81C154.55,-391.26 172.96,-270.86 235,-198.36 301.72,-120.4 339.15,-115.92 438,-88.36 663.79,-25.4 944.97,-52.29 1080.14,-71.36"/>
<polygon fill="#757575" stroke="#757575" points="1080,-74.87 1090.4,-72.83 1081,-67.95 1080,-74.87"/>
</g>
<!-- reports/reports.module.ts -->
<g id="node5" class="node">
<title>reports/reports.module.ts</title>
<path fill="none" stroke="#c6c5fe" d="M394.33,-230.86C394.33,-230.86 242.67,-230.86 242.67,-230.86 238.83,-230.86 235,-227.03 235,-223.2 235,-223.2 235,-215.53 235,-215.53 235,-211.7 238.83,-207.86 242.67,-207.86 242.67,-207.86 394.33,-207.86 394.33,-207.86 398.17,-207.86 402,-211.7 402,-215.53 402,-215.53 402,-223.2 402,-223.2 402,-227.03 398.17,-230.86 394.33,-230.86"/>
<text text-anchor="middle" x="318.5" y="-215.66" font-family="Arial" font-size="14.00" fill="#c6c5fe">reports/reports.module.ts</text>
</g>
<!-- app.module.ts&#45;&gt;reports/reports.module.ts -->
<g id="edge5" class="edge">
<title>app.module.ts&#45;&gt;reports/reports.module.ts</title>
<path fill="none" stroke="#757575" d="M157.82,-428.79C185.06,-393.07 268.03,-284.24 302.37,-239.2"/>
<polygon fill="#757575" stroke="#757575" points="305.28,-241.16 308.56,-231.09 299.72,-236.92 305.28,-241.16"/>
</g>
<!-- users/user.entity.ts -->
<g id="node6" class="node">
<title>users/user.entity.ts</title>
<path fill="none" stroke="#ff6c60" d="M1420.33,-236.86C1420.33,-236.86 1307.67,-236.86 1307.67,-236.86 1303.83,-236.86 1300,-233.03 1300,-229.2 1300,-229.2 1300,-221.53 1300,-221.53 1300,-217.7 1303.83,-213.86 1307.67,-213.86 1307.67,-213.86 1420.33,-213.86 1420.33,-213.86 1424.17,-213.86 1428,-217.7 1428,-221.53 1428,-221.53 1428,-229.2 1428,-229.2 1428,-233.03 1424.17,-236.86 1420.33,-236.86"/>
<text text-anchor="middle" x="1364" y="-221.66" font-family="Arial" font-size="14.00" fill="#ff6c60">users/user.entity.ts</text>
</g>
<!-- app.module.ts&#45;&gt;users/user.entity.ts -->
<g id="edge6" class="edge">
<title>app.module.ts&#45;&gt;users/user.entity.ts</title>
<path fill="none" stroke="#757575" d="M150.32,-428.58C156.7,-373.79 186,-144.58 235,-95.36 345.81,15.94 420.44,-8.36 577.5,-8.36 577.5,-8.36 577.5,-8.36 889.5,-8.36 1057.73,-8.36 1123.66,29.4 1264,-63.36 1315.33,-97.29 1344.45,-167.89 1356.45,-203.63"/>
<polygon fill="#757575" stroke="#757575" points="1353.24,-205.07 1359.63,-213.52 1359.9,-202.93 1353.24,-205.07"/>
</g>
<!-- users/users.module.ts -->
<g id="node7" class="node">
<title>users/users.module.ts</title>
<path fill="none" stroke="#c6c5fe" d="M385.33,-615.86C385.33,-615.86 251.67,-615.86 251.67,-615.86 247.83,-615.86 244,-612.03 244,-608.2 244,-608.2 244,-600.53 244,-600.53 244,-596.7 247.83,-592.86 251.67,-592.86 251.67,-592.86 385.33,-592.86 385.33,-592.86 389.17,-592.86 393,-596.7 393,-600.53 393,-600.53 393,-608.2 393,-608.2 393,-612.03 389.17,-615.86 385.33,-615.86"/>
<text text-anchor="middle" x="318.5" y="-600.66" font-family="Arial" font-size="14.00" fill="#c6c5fe">users/users.module.ts</text>
</g>
<!-- app.module.ts&#45;&gt;users/users.module.ts -->
<g id="edge7" class="edge">
<title>app.module.ts&#45;&gt;users/users.module.ts</title>
<path fill="none" stroke="#757575" d="M160.85,-451.89C189.54,-479.82 262.98,-551.29 298.15,-585.53"/>
<polygon fill="#757575" stroke="#757575" points="295.83,-588.16 305.44,-592.62 300.71,-583.14 295.83,-588.16"/>
</g>
<!-- reports/report.entity.ts&#45;&gt;users/user.entity.ts -->
<g id="edge9" class="edge">
<title>reports/report.entity.ts&#45;&gt;users/user.entity.ts</title>
<path fill="none" stroke="#757575" d="M1234.76,-88.13C1245,-91.47 1255.07,-95.83 1264,-101.36 1305.66,-127.18 1339.06,-176.22 1354.2,-204.54"/>
<polygon fill="#757575" stroke="#757575" points="1351.15,-206.27 1358.78,-213.62 1357.4,-203.12 1351.15,-206.27"/>
</g>
<!-- reports/reports.module.ts&#45;&gt;reports/report.entity.ts -->
<g id="edge19" class="edge">
<title>reports/reports.module.ts&#45;&gt;reports/report.entity.ts</title>
<path fill="none" stroke="#757575" d="M335.44,-207.62C357.35,-192.1 398.58,-165.11 438,-151.36 659.19,-74.21 940.32,-73.82 1077.37,-79.36"/>
<polygon fill="#757575" stroke="#757575" points="1077.24,-82.86 1087.38,-79.79 1077.54,-75.87 1077.24,-82.86"/>
</g>
<!-- reports/reports.controller.ts -->
<g id="node15" class="node">
<title>reports/reports.controller.ts</title>
<path fill="none" stroke="#c6c5fe" d="M659.33,-276.86C659.33,-276.86 497.67,-276.86 497.67,-276.86 493.83,-276.86 490,-273.03 490,-269.2 490,-269.2 490,-261.53 490,-261.53 490,-257.7 493.83,-253.86 497.67,-253.86 497.67,-253.86 659.33,-253.86 659.33,-253.86 663.17,-253.86 667,-257.7 667,-261.53 667,-261.53 667,-269.2 667,-269.2 667,-273.03 663.17,-276.86 659.33,-276.86"/>
<text text-anchor="middle" x="578.5" y="-261.66" font-family="Arial" font-size="14.00" fill="#c6c5fe">reports/reports.controller.ts</text>
</g>
<!-- reports/reports.module.ts&#45;&gt;reports/reports.controller.ts -->
<g id="edge20" class="edge">
<title>reports/reports.module.ts&#45;&gt;reports/reports.controller.ts</title>
<path fill="none" stroke="#757575" d="M384.27,-230.91C420.31,-237.34 465.32,-245.36 502.84,-252.05"/>
<polygon fill="#757575" stroke="#757575" points="502.24,-255.5 512.7,-253.81 503.47,-248.61 502.24,-255.5"/>
</g>
<!-- reports/reports.service.ts -->
<g id="node16" class="node">
<title>reports/reports.service.ts</title>
<path fill="none" stroke="#c6c5fe" d="M963.33,-135.86C963.33,-135.86 813.67,-135.86 813.67,-135.86 809.83,-135.86 806,-132.03 806,-128.2 806,-128.2 806,-120.53 806,-120.53 806,-116.7 809.83,-112.86 813.67,-112.86 813.67,-112.86 963.33,-112.86 963.33,-112.86 967.17,-112.86 971,-116.7 971,-120.53 971,-120.53 971,-128.2 971,-128.2 971,-132.03 967.17,-135.86 963.33,-135.86"/>
<text text-anchor="middle" x="888.5" y="-120.66" font-family="Arial" font-size="14.00" fill="#c6c5fe">reports/reports.service.ts</text>
</g>
<!-- reports/reports.module.ts&#45;&gt;reports/reports.service.ts -->
<g id="edge21" class="edge">
<title>reports/reports.module.ts&#45;&gt;reports/reports.service.ts</title>
<path fill="none" stroke="#757575" d="M388.3,-207.86C494.23,-190.14 696.73,-156.27 808.51,-137.57"/>
<polygon fill="#757575" stroke="#757575" points="809.09,-141.03 818.38,-135.92 807.94,-134.12 809.09,-141.03"/>
</g>
<!-- users/user.entity.ts&#45;&gt;reports/report.entity.ts -->
<g id="edge27" class="edge">
<title>users/user.entity.ts&#45;&gt;reports/report.entity.ts</title>
<path fill="none" stroke="#757575" d="M1352.92,-213.82C1337.24,-191.57 1304.53,-144.48 1264,-119.36 1247.09,-108.88 1226.12,-102.62 1207.6,-98.18"/>
<polygon fill="#757575" stroke="#757575" points="1208.14,-94.71 1197.61,-95.89 1206.57,-101.54 1208.14,-94.71"/>
</g>
<!-- users/users.module.ts&#45;&gt;users/user.entity.ts -->
<g id="edge39" class="edge">
<title>users/users.module.ts&#45;&gt;users/user.entity.ts</title>
<path fill="none" stroke="#757575" d="M345.34,-592.75C369.01,-582.56 405.24,-568.03 438,-559.36 691.94,-492.15 778.73,-567.47 1022,-468.36 1159.75,-412.25 1295.14,-290.6 1343.95,-244.02"/>
<polygon fill="#757575" stroke="#757575" points="1346.5,-246.42 1351.28,-236.97 1341.64,-241.38 1346.5,-246.42"/>
</g>
<!-- users/auth.service.ts -->
<g id="node18" class="node">
<title>users/auth.service.ts</title>
<path fill="none" stroke="#c6c5fe" d="M950.83,-739.86C950.83,-739.86 826.17,-739.86 826.17,-739.86 822.33,-739.86 818.5,-736.03 818.5,-732.2 818.5,-732.2 818.5,-724.53 818.5,-724.53 818.5,-720.7 822.33,-716.86 826.17,-716.86 826.17,-716.86 950.83,-716.86 950.83,-716.86 954.67,-716.86 958.5,-720.7 958.5,-724.53 958.5,-724.53 958.5,-732.2 958.5,-732.2 958.5,-736.03 954.67,-739.86 950.83,-739.86"/>
<text text-anchor="middle" x="888.5" y="-724.66" font-family="Arial" font-size="14.00" fill="#c6c5fe">users/auth.service.ts</text>
</g>
<!-- users/users.module.ts&#45;&gt;users/auth.service.ts -->
<g id="edge37" class="edge">
<title>users/users.module.ts&#45;&gt;users/auth.service.ts</title>
<path fill="none" stroke="#757575" d="M368.71,-615.9C449.3,-634.69 614.52,-672.78 755,-702.36 775.02,-706.58 796.78,-710.94 816.78,-714.86"/>
<polygon fill="#757575" stroke="#757575" points="816.26,-718.32 826.74,-716.81 817.6,-711.45 816.26,-718.32"/>
</g>
<!-- users/users.service.ts -->
<g id="node19" class="node">
<title>users/users.service.ts</title>
<path fill="none" stroke="#c6c5fe" d="M1226.83,-739.86C1226.83,-739.86 1095.17,-739.86 1095.17,-739.86 1091.33,-739.86 1087.5,-736.03 1087.5,-732.2 1087.5,-732.2 1087.5,-724.53 1087.5,-724.53 1087.5,-720.7 1091.33,-716.86 1095.17,-716.86 1095.17,-716.86 1226.83,-716.86 1226.83,-716.86 1230.67,-716.86 1234.5,-720.7 1234.5,-724.53 1234.5,-724.53 1234.5,-732.2 1234.5,-732.2 1234.5,-736.03 1230.67,-739.86 1226.83,-739.86"/>
<text text-anchor="middle" x="1161" y="-724.66" font-family="Arial" font-size="14.00" fill="#c6c5fe">users/users.service.ts</text>
</g>
<!-- users/users.module.ts&#45;&gt;users/users.service.ts -->
<g id="edge41" class="edge">
<title>users/users.module.ts&#45;&gt;users/users.service.ts</title>
<path fill="none" stroke="#757575" d="M392.41,-615.89C395.76,-617.49 398.98,-619.31 402,-621.36 426.16,-637.79 414.03,-659.66 438,-676.36 652.58,-825.95 761.17,-769.09 1022,-749.36 1043.39,-747.74 1066.49,-744.73 1087.55,-741.49"/>
<polygon fill="#757575" stroke="#757575" points="1088.38,-744.9 1097.71,-739.88 1087.29,-737.99 1088.38,-744.9"/>
</g>
<!-- users/interceptors/current&#45;user.interceptor.ts -->
<g id="node23" class="node">
<title>users/interceptors/current&#45;user.interceptor.ts</title>
<path fill="none" stroke="#c6c5fe" d="M711.33,-817.86C711.33,-817.86 445.67,-817.86 445.67,-817.86 441.83,-817.86 438,-814.03 438,-810.2 438,-810.2 438,-802.53 438,-802.53 438,-798.7 441.83,-794.86 445.67,-794.86 445.67,-794.86 711.33,-794.86 711.33,-794.86 715.17,-794.86 719,-798.7 719,-802.53 719,-802.53 719,-810.2 719,-810.2 719,-814.03 715.17,-817.86 711.33,-817.86"/>
<text text-anchor="middle" x="578.5" y="-802.66" font-family="Arial" font-size="14.00" fill="#c6c5fe">users/interceptors/current&#45;user.interceptor.ts</text>
</g>
<!-- users/users.module.ts&#45;&gt;users/interceptors/current&#45;user.interceptor.ts -->
<g id="edge38" class="edge">
<title>users/users.module.ts&#45;&gt;users/interceptors/current&#45;user.interceptor.ts</title>
<path fill="none" stroke="#757575" d="M327.15,-615.98C352.72,-654.78 433.85,-777.64 438,-780.36 444.3,-784.5 451.09,-788.02 458.15,-791.01"/>
<polygon fill="#757575" stroke="#757575" points="457.35,-794.45 467.94,-794.77 459.86,-787.92 457.35,-794.45"/>
</g>
<!-- users/users.controller.ts -->
<g id="node24" class="node">
<title>users/users.controller.ts</title>
<path fill="none" stroke="#c6c5fe" d="M650.33,-590.86C650.33,-590.86 506.67,-590.86 506.67,-590.86 502.83,-590.86 499,-587.03 499,-583.2 499,-583.2 499,-575.53 499,-575.53 499,-571.7 502.83,-567.86 506.67,-567.86 506.67,-567.86 650.33,-567.86 650.33,-567.86 654.17,-567.86 658,-571.7 658,-575.53 658,-575.53 658,-583.2 658,-583.2 658,-587.03 654.17,-590.86 650.33,-590.86"/>
<text text-anchor="middle" x="578.5" y="-575.66" font-family="Arial" font-size="14.00" fill="#c6c5fe">users/users.controller.ts</text>
</g>
<!-- users/users.module.ts&#45;&gt;users/users.controller.ts -->
<g id="edge40" class="edge">
<title>users/users.module.ts&#45;&gt;users/users.controller.ts</title>
<path fill="none" stroke="#757575" d="M393.09,-597.23C422.92,-594.34 457.64,-590.98 488.86,-587.95"/>
<polygon fill="#757575" stroke="#757575" points="489.24,-591.43 498.86,-586.98 488.56,-584.46 489.24,-591.43"/>
</g>
<!-- guards/admin.guard.ts -->
<g id="node8" class="node">
<title>guards/admin.guard.ts</title>
<path fill="none" stroke="#cfffac" d="M956.83,-256.86C956.83,-256.86 820.17,-256.86 820.17,-256.86 816.33,-256.86 812.5,-253.03 812.5,-249.2 812.5,-249.2 812.5,-241.53 812.5,-241.53 812.5,-237.7 816.33,-233.86 820.17,-233.86 820.17,-233.86 956.83,-233.86 956.83,-233.86 960.67,-233.86 964.5,-237.7 964.5,-241.53 964.5,-241.53 964.5,-249.2 964.5,-249.2 964.5,-253.03 960.67,-256.86 956.83,-256.86"/>
<text text-anchor="middle" x="888.5" y="-241.66" font-family="Arial" font-size="14.00" fill="#cfffac">guards/admin.guard.ts</text>
</g>
<!-- guards/auth.guard.ts -->
<g id="node9" class="node">
<title>guards/auth.guard.ts</title>
<path fill="none" stroke="#cfffac" d="M950.83,-459.86C950.83,-459.86 826.17,-459.86 826.17,-459.86 822.33,-459.86 818.5,-456.03 818.5,-452.2 818.5,-452.2 818.5,-444.53 818.5,-444.53 818.5,-440.7 822.33,-436.86 826.17,-436.86 826.17,-436.86 950.83,-436.86 950.83,-436.86 954.67,-436.86 958.5,-440.7 958.5,-444.53 958.5,-444.53 958.5,-452.2 958.5,-452.2 958.5,-456.03 954.67,-459.86 950.83,-459.86"/>
<text text-anchor="middle" x="888.5" y="-444.66" font-family="Arial" font-size="14.00" fill="#cfffac">guards/auth.guard.ts</text>
</g>
<!-- interceptors/SerializeInterceptor.ts -->
<g id="node10" class="node">
<title>interceptors/SerializeInterceptor.ts</title>
<path fill="none" stroke="#cfffac" d="M991.33,-418.86C991.33,-418.86 785.67,-418.86 785.67,-418.86 781.83,-418.86 778,-415.03 778,-411.2 778,-411.2 778,-403.53 778,-403.53 778,-399.7 781.83,-395.86 785.67,-395.86 785.67,-395.86 991.33,-395.86 991.33,-395.86 995.17,-395.86 999,-399.7 999,-403.53 999,-403.53 999,-411.2 999,-411.2 999,-415.03 995.17,-418.86 991.33,-418.86"/>
<text text-anchor="middle" x="888.5" y="-403.66" font-family="Arial" font-size="14.00" fill="#cfffac">interceptors/SerializeInterceptor.ts</text>
</g>
<!-- main.ts -->
<g id="node11" class="node">
<title>main.ts</title>
<path fill="none" stroke="#c6c5fe" d="M53.33,-451.86C53.33,-451.86 7.67,-451.86 7.67,-451.86 3.83,-451.86 0,-448.03 0,-444.2 0,-444.2 0,-436.53 0,-436.53 0,-432.7 3.83,-428.86 7.67,-428.86 7.67,-428.86 53.33,-428.86 53.33,-428.86 57.17,-428.86 61,-432.7 61,-436.53 61,-436.53 61,-444.2 61,-444.2 61,-448.03 57.17,-451.86 53.33,-451.86"/>
<text text-anchor="middle" x="30.5" y="-436.66" font-family="Arial" font-size="14.00" fill="#c6c5fe">main.ts</text>
</g>
<!-- main.ts&#45;&gt;app.module.ts -->
<g id="edge8" class="edge">
<title>main.ts&#45;&gt;app.module.ts</title>
<path fill="none" stroke="#757575" d="M61.24,-440.36C69.03,-440.36 77.7,-440.36 86.47,-440.36"/>
<polygon fill="#757575" stroke="#757575" points="86.75,-443.86 96.75,-440.36 86.75,-436.86 86.75,-443.86"/>
</g>
<!-- reports/dtos/approve&#45;report.dto.ts -->
<g id="node12" class="node">
<title>reports/dtos/approve&#45;report.dto.ts</title>
<path fill="none" stroke="#cfffac" d="M989.33,-215.86C989.33,-215.86 787.67,-215.86 787.67,-215.86 783.83,-215.86 780,-212.03 780,-208.2 780,-208.2 780,-200.53 780,-200.53 780,-196.7 783.83,-192.86 787.67,-192.86 787.67,-192.86 989.33,-192.86 989.33,-192.86 993.17,-192.86 997,-196.7 997,-200.53 997,-200.53 997,-208.2 997,-208.2 997,-212.03 993.17,-215.86 989.33,-215.86"/>
<text text-anchor="middle" x="888.5" y="-200.66" font-family="Arial" font-size="14.00" fill="#cfffac">reports/dtos/approve&#45;report.dto.ts</text>
</g>
<!-- reports/dtos/create&#45;report.dto.ts -->
<g id="node13" class="node">
<title>reports/dtos/create&#45;report.dto.ts</title>
<path fill="none" stroke="#cfffac" d="M1256.33,-175.86C1256.33,-175.86 1065.67,-175.86 1065.67,-175.86 1061.83,-175.86 1058,-172.03 1058,-168.2 1058,-168.2 1058,-160.53 1058,-160.53 1058,-156.7 1061.83,-152.86 1065.67,-152.86 1065.67,-152.86 1256.33,-152.86 1256.33,-152.86 1260.17,-152.86 1264,-156.7 1264,-160.53 1264,-160.53 1264,-168.2 1264,-168.2 1264,-172.03 1260.17,-175.86 1256.33,-175.86"/>
<text text-anchor="middle" x="1161" y="-160.66" font-family="Arial" font-size="14.00" fill="#cfffac">reports/dtos/create&#45;report.dto.ts</text>
</g>
<!-- reports/dtos/report.dto.ts -->
<g id="node14" class="node">
<title>reports/dtos/report.dto.ts</title>
<path fill="none" stroke="#cfffac" d="M962.83,-297.86C962.83,-297.86 814.17,-297.86 814.17,-297.86 810.33,-297.86 806.5,-294.03 806.5,-290.2 806.5,-290.2 806.5,-282.53 806.5,-282.53 806.5,-278.7 810.33,-274.86 814.17,-274.86 814.17,-274.86 962.83,-274.86 962.83,-274.86 966.67,-274.86 970.5,-278.7 970.5,-282.53 970.5,-282.53 970.5,-290.2 970.5,-290.2 970.5,-294.03 966.67,-297.86 962.83,-297.86"/>
<text text-anchor="middle" x="888.5" y="-282.66" font-family="Arial" font-size="14.00" fill="#cfffac">reports/dtos/report.dto.ts</text>
</g>
<!-- reports/reports.controller.ts&#45;&gt;users/user.entity.ts -->
<g id="edge18" class="edge">
<title>reports/reports.controller.ts&#45;&gt;users/user.entity.ts</title>
<path fill="none" stroke="#757575" d="M617.4,-276.88C652.65,-286.95 706.82,-300.81 755,-306.36 872.89,-319.95 904.14,-320.17 1022,-306.36 1129.28,-293.8 1251.73,-259.71 1316.74,-239.99"/>
<polygon fill="#757575" stroke="#757575" points="1318.13,-243.23 1326.67,-236.96 1316.08,-236.54 1318.13,-243.23"/>
</g>
<!-- reports/reports.controller.ts&#45;&gt;guards/admin.guard.ts -->
<g id="edge10" class="edge">
<title>reports/reports.controller.ts&#45;&gt;guards/admin.guard.ts</title>
<path fill="none" stroke="#757575" d="M667.35,-259.66C709.65,-256.91 760.16,-253.63 802.13,-250.91"/>
<polygon fill="#757575" stroke="#757575" points="802.58,-254.38 812.33,-250.24 802.12,-247.4 802.58,-254.38"/>
</g>
<!-- reports/reports.controller.ts&#45;&gt;guards/auth.guard.ts -->
<g id="edge11" class="edge">
<title>reports/reports.controller.ts&#45;&gt;guards/auth.guard.ts</title>
<path fill="none" stroke="#757575" d="M588.17,-277.22C611.33,-307.91 678.13,-390.11 755,-427.36 771.45,-435.33 790.26,-440.39 808.44,-443.57"/>
<polygon fill="#757575" stroke="#757575" points="808.04,-447.05 818.46,-445.15 809.13,-440.14 808.04,-447.05"/>
</g>
<!-- reports/reports.controller.ts&#45;&gt;interceptors/SerializeInterceptor.ts -->
<g id="edge12" class="edge">
<title>reports/reports.controller.ts&#45;&gt;interceptors/SerializeInterceptor.ts</title>
<path fill="none" stroke="#757575" d="M591.97,-276.99C619.18,-301.65 686.96,-359.16 755,-386.36 761.39,-388.92 768.08,-391.17 774.9,-393.14"/>
<polygon fill="#757575" stroke="#757575" points="774.41,-396.63 784.97,-395.84 776.22,-389.87 774.41,-396.63"/>
</g>
<!-- reports/reports.controller.ts&#45;&gt;reports/dtos/approve&#45;report.dto.ts -->
<g id="edge13" class="edge">
<title>reports/reports.controller.ts&#45;&gt;reports/dtos/approve&#45;report.dto.ts</title>
<path fill="none" stroke="#757575" d="M624.38,-253.84C659.71,-245.02 710.29,-232.95 755,-224.36 767.65,-221.93 781.03,-219.62 794.23,-217.48"/>
<polygon fill="#757575" stroke="#757575" points="794.95,-220.91 804.28,-215.89 793.85,-214 794.95,-220.91"/>
</g>
<!-- reports/reports.controller.ts&#45;&gt;reports/dtos/create&#45;report.dto.ts -->
<g id="edge14" class="edge">
<title>reports/reports.controller.ts&#45;&gt;reports/dtos/create&#45;report.dto.ts</title>
<path fill="none" stroke="#757575" d="M598.07,-253.68C629.14,-234.85 694.27,-198.35 755,-183.36 851.76,-159.48 965.39,-156.2 1047.61,-158.05"/>
<polygon fill="#757575" stroke="#757575" points="1047.65,-161.55 1057.74,-158.3 1047.83,-154.55 1047.65,-161.55"/>
</g>
<!-- reports/reports.controller.ts&#45;&gt;reports/dtos/report.dto.ts -->
<g id="edge15" class="edge">
<title>reports/reports.controller.ts&#45;&gt;reports/dtos/report.dto.ts</title>
<path fill="none" stroke="#757575" d="M667.35,-271.35C707.67,-274.1 755.46,-277.36 796.2,-280.14"/>
<polygon fill="#757575" stroke="#757575" points="796.18,-283.64 806.4,-280.83 796.66,-276.66 796.18,-283.64"/>
</g>
<!-- reports/reports.controller.ts&#45;&gt;reports/reports.service.ts -->
<g id="edge16" class="edge">
<title>reports/reports.controller.ts&#45;&gt;reports/reports.service.ts</title>
<path fill="none" stroke="#757575" d="M605.9,-253.8C635.09,-240.35 682.79,-216.37 719,-188.36 737.4,-174.13 734.62,-161.58 755,-150.36 767.6,-143.43 781.77,-138.33 796.03,-134.57"/>
<polygon fill="#757575" stroke="#757575" points="797.01,-137.94 805.9,-132.19 795.36,-131.14 797.01,-137.94"/>
</g>
<!-- users/decorators/current&#45;user.decorator.ts -->
<g id="node17" class="node">
<title>users/decorators/current&#45;user.decorator.ts</title>
<path fill="none" stroke="#cfffac" d="M1014.33,-377.86C1014.33,-377.86 762.67,-377.86 762.67,-377.86 758.83,-377.86 755,-374.03 755,-370.2 755,-370.2 755,-362.53 755,-362.53 755,-358.7 758.83,-354.86 762.67,-354.86 762.67,-354.86 1014.33,-354.86 1014.33,-354.86 1018.17,-354.86 1022,-358.7 1022,-362.53 1022,-362.53 1022,-370.2 1022,-370.2 1022,-374.03 1018.17,-377.86 1014.33,-377.86"/>
<text text-anchor="middle" x="888.5" y="-362.66" font-family="Arial" font-size="14.00" fill="#cfffac">users/decorators/current&#45;user.decorator.ts</text>
</g>
<!-- reports/reports.controller.ts&#45;&gt;users/decorators/current&#45;user.decorator.ts -->
<g id="edge17" class="edge">
<title>reports/reports.controller.ts&#45;&gt;users/decorators/current&#45;user.decorator.ts</title>
<path fill="none" stroke="#757575" d="M602.2,-276.9C635.1,-293.19 698.32,-322.9 755,-340.36 770.68,-345.19 787.68,-349.32 804.12,-352.78"/>
<polygon fill="#757575" stroke="#757575" points="803.77,-356.28 814.27,-354.84 805.16,-349.42 803.77,-356.28"/>
</g>
<!-- reports/reports.service.ts&#45;&gt;reports/report.entity.ts -->
<g id="edge23" class="edge">
<title>reports/reports.service.ts&#45;&gt;reports/report.entity.ts</title>
<path fill="none" stroke="#757575" d="M967.38,-112.85C1001.75,-107.76 1042.2,-101.78 1077.13,-96.62"/>
<polygon fill="#757575" stroke="#757575" points="1077.93,-100.04 1087.31,-95.11 1076.9,-93.11 1077.93,-100.04"/>
</g>
<!-- reports/reports.service.ts&#45;&gt;users/user.entity.ts -->
<g id="edge24" class="edge">
<title>reports/reports.service.ts&#45;&gt;users/user.entity.ts</title>
<path fill="none" stroke="#757575" d="M971.1,-114.09C1049.1,-107.54 1168.6,-106.23 1264,-143.36 1298,-156.6 1328.95,-186.37 1346.88,-206.16"/>
<polygon fill="#757575" stroke="#757575" points="1344.28,-208.51 1353.52,-213.7 1349.54,-203.88 1344.28,-208.51"/>
</g>
<!-- reports/reports.service.ts&#45;&gt;reports/dtos/create&#45;report.dto.ts -->
<g id="edge22" class="edge">
<title>reports/reports.service.ts&#45;&gt;reports/dtos/create&#45;report.dto.ts</title>
<path fill="none" stroke="#757575" d="M967.38,-135.88C1000.05,-140.71 1038.21,-146.35 1071.9,-151.34"/>
<polygon fill="#757575" stroke="#757575" points="1071.8,-154.86 1082.2,-152.86 1072.82,-147.93 1071.8,-154.86"/>
</g>
<!-- users/auth.service.ts&#45;&gt;users/users.service.ts -->
<g id="edge25" class="edge">
<title>users/auth.service.ts&#45;&gt;users/users.service.ts</title>
<path fill="none" stroke="#757575" d="M958.81,-728.36C994.72,-728.36 1038.85,-728.36 1076.62,-728.36"/>
<polygon fill="#757575" stroke="#757575" points="1077.09,-731.86 1087.09,-728.36 1077.09,-724.86 1077.09,-731.86"/>
</g>
<!-- users/users.service.ts&#45;&gt;users/user.entity.ts -->
<g id="edge42" class="edge">
<title>users/users.service.ts&#45;&gt;users/user.entity.ts</title>
<path fill="none" stroke="#757575" d="M1169.52,-716.45C1187.68,-687.32 1234.59,-609.77 1264,-540.36 1309.31,-433.43 1344.91,-298.47 1357.79,-246.81"/>
<polygon fill="#757575" stroke="#757575" points="1361.19,-247.64 1360.19,-237.09 1354.39,-245.96 1361.19,-247.64"/>
</g>
<!-- users/dtos/create&#45;user.dto.ts -->
<g id="node20" class="node">
<title>users/dtos/create&#45;user.dto.ts</title>
<path fill="none" stroke="#cfffac" d="M974.33,-618.86C974.33,-618.86 802.67,-618.86 802.67,-618.86 798.83,-618.86 795,-615.03 795,-611.2 795,-611.2 795,-603.53 795,-603.53 795,-599.7 798.83,-595.86 802.67,-595.86 802.67,-595.86 974.33,-595.86 974.33,-595.86 978.17,-595.86 982,-599.7 982,-603.53 982,-603.53 982,-611.2 982,-611.2 982,-615.03 978.17,-618.86 974.33,-618.86"/>
<text text-anchor="middle" x="888.5" y="-603.66" font-family="Arial" font-size="14.00" fill="#cfffac">users/dtos/create&#45;user.dto.ts</text>
</g>
<!-- users/dtos/update&#45;user.dto.ts -->
<g id="node21" class="node">
<title>users/dtos/update&#45;user.dto.ts</title>
<path fill="none" stroke="#cfffac" d="M976.33,-577.86C976.33,-577.86 800.67,-577.86 800.67,-577.86 796.83,-577.86 793,-574.03 793,-570.2 793,-570.2 793,-562.53 793,-562.53 793,-558.7 796.83,-554.86 800.67,-554.86 800.67,-554.86 976.33,-554.86 976.33,-554.86 980.17,-554.86 984,-558.7 984,-562.53 984,-562.53 984,-570.2 984,-570.2 984,-574.03 980.17,-577.86 976.33,-577.86"/>
<text text-anchor="middle" x="888.5" y="-562.66" font-family="Arial" font-size="14.00" fill="#cfffac">users/dtos/update&#45;user.dto.ts</text>
</g>
<!-- users/dtos/user.dto.ts -->
<g id="node22" class="node">
<title>users/dtos/user.dto.ts</title>
<path fill="none" stroke="#cfffac" d="M953.33,-659.86C953.33,-659.86 823.67,-659.86 823.67,-659.86 819.83,-659.86 816,-656.03 816,-652.2 816,-652.2 816,-644.53 816,-644.53 816,-640.7 819.83,-636.86 823.67,-636.86 823.67,-636.86 953.33,-636.86 953.33,-636.86 957.17,-636.86 961,-640.7 961,-644.53 961,-644.53 961,-652.2 961,-652.2 961,-656.03 957.17,-659.86 953.33,-659.86"/>
<text text-anchor="middle" x="888.5" y="-644.66" font-family="Arial" font-size="14.00" fill="#cfffac">users/dtos/user.dto.ts</text>
</g>
<!-- users/interceptors/current&#45;user.interceptor.ts&#45;&gt;users/users.service.ts -->
<g id="edge26" class="edge">
<title>users/interceptors/current&#45;user.interceptor.ts&#45;&gt;users/users.service.ts</title>
<path fill="none" stroke="#757575" d="M719.03,-810.08C806.9,-809.66 922.19,-804.01 1022,-782.36 1059.78,-774.17 1100.76,-756.99 1128.17,-744.19"/>
<polygon fill="#757575" stroke="#757575" points="1129.73,-747.32 1137.26,-739.87 1126.73,-741 1129.73,-747.32"/>
</g>
<!-- users/users.controller.ts&#45;&gt;users/user.entity.ts -->
<g id="edge35" class="edge">
<title>users/users.controller.ts&#45;&gt;users/user.entity.ts</title>
<path fill="none" stroke="#757575" d="M633.04,-567.86C667.68,-560.77 713.84,-552 755,-546.36 867.48,-530.96 1174.09,-571.69 1264,-502.36 1346.5,-438.75 1360.38,-300.63 1362.62,-247.14"/>
<polygon fill="#757575" stroke="#757575" points="1366.12,-247.17 1362.94,-237.07 1359.12,-246.95 1366.12,-247.17"/>
</g>
<!-- users/users.controller.ts&#45;&gt;guards/auth.guard.ts -->
<g id="edge28" class="edge">
<title>users/users.controller.ts&#45;&gt;guards/auth.guard.ts</title>
<path fill="none" stroke="#757575" d="M606.56,-567.85C661.88,-544.32 787.96,-490.7 850.67,-464.03"/>
<polygon fill="#757575" stroke="#757575" points="852.34,-467.12 860.17,-459.99 849.6,-460.68 852.34,-467.12"/>
</g>
<!-- users/users.controller.ts&#45;&gt;interceptors/SerializeInterceptor.ts -->
<g id="edge29" class="edge">
<title>users/users.controller.ts&#45;&gt;interceptors/SerializeInterceptor.ts</title>
<path fill="none" stroke="#757575" d="M588.69,-567.79C612.56,-538.61 679.95,-461.94 755,-427.36 759.33,-425.37 763.81,-423.57 768.4,-421.94"/>
<polygon fill="#757575" stroke="#757575" points="769.52,-425.25 777.94,-418.83 767.35,-418.6 769.52,-425.25"/>
</g>
<!-- users/users.controller.ts&#45;&gt;users/decorators/current&#45;user.decorator.ts -->
<g id="edge31" class="edge">
<title>users/users.controller.ts&#45;&gt;users/decorators/current&#45;user.decorator.ts</title>
<path fill="none" stroke="#757575" d="M586.05,-567.75C606.16,-533.32 670.75,-431.45 755,-386.36 758.17,-384.66 761.45,-383.1 764.8,-381.66"/>
<polygon fill="#757575" stroke="#757575" points="766.37,-384.8 774.42,-377.9 763.83,-378.28 766.37,-384.8"/>
</g>
<!-- users/users.controller.ts&#45;&gt;users/auth.service.ts -->
<g id="edge30" class="edge">
<title>users/users.controller.ts&#45;&gt;users/auth.service.ts</title>
<path fill="none" stroke="#757575" d="M610.2,-590.91C640.19,-603.22 686.01,-624.87 719,-653.36 739.45,-671.03 732.18,-687.88 755,-702.36 770.86,-712.42 789.76,-718.73 808.26,-722.66"/>
<polygon fill="#757575" stroke="#757575" points="807.69,-726.11 818.17,-724.55 809,-719.24 807.69,-726.11"/>
</g>
<!-- users/users.controller.ts&#45;&gt;users/users.service.ts -->
<g id="edge36" class="edge">
<title>users/users.controller.ts&#45;&gt;users/users.service.ts</title>
<path fill="none" stroke="#757575" d="M629.73,-590.88C657.6,-598.81 691.98,-611.23 719,-629.36 738.86,-642.69 733.91,-658.08 755,-669.36 755.44,-669.6 958.75,-699.15 1077.1,-716.33"/>
<polygon fill="#757575" stroke="#757575" points="1076.83,-719.83 1087.23,-717.8 1077.83,-712.9 1076.83,-719.83"/>
</g>
<!-- users/users.controller.ts&#45;&gt;users/dtos/create&#45;user.dto.ts -->
<g id="edge32" class="edge">
<title>users/users.controller.ts&#45;&gt;users/dtos/create&#45;user.dto.ts</title>
<path fill="none" stroke="#757575" d="M658.02,-586.5C696.55,-590 743.45,-594.27 784.79,-598.03"/>
<polygon fill="#757575" stroke="#757575" points="784.62,-601.52 794.89,-598.94 785.25,-594.55 784.62,-601.52"/>
</g>
<!-- users/users.controller.ts&#45;&gt;users/dtos/update&#45;user.dto.ts -->
<g id="edge33" class="edge">
<title>users/users.controller.ts&#45;&gt;users/dtos/update&#45;user.dto.ts</title>
<path fill="none" stroke="#757575" d="M658.02,-576.05C695.97,-574.45 742.05,-572.5 782.93,-570.78"/>
<polygon fill="#757575" stroke="#757575" points="783.08,-574.27 792.93,-570.35 782.79,-567.28 783.08,-574.27"/>
</g>
<!-- users/users.controller.ts&#45;&gt;users/dtos/user.dto.ts -->
<g id="edge34" class="edge">
<title>users/users.controller.ts&#45;&gt;users/dtos/user.dto.ts</title>
<path fill="none" stroke="#757575" d="M615.81,-590.91C651.08,-601.78 706.28,-617.93 755,-628.36 771.2,-631.83 788.64,-634.92 805.38,-637.57"/>
<polygon fill="#757575" stroke="#757575" points="805.28,-641.1 815.69,-639.16 806.34,-634.18 805.28,-641.1"/>
</g>
</g>
</svg>
