<?xml version="1.0" encoding="UTF-8" standalone="no"?>
<!DOCTYPE svg PUBLIC "-//W3C//DTD SVG 1.1//EN"
 "http://www.w3.org/Graphics/SVG/1.1/DTD/svg11.dtd">
<!-- Generated by graphviz version 2.43.0 (0)
 -->
<!-- Title: G Pages: 1 -->
<svg width="354pt" height="66pt"
 viewBox="0.00 0.00 354.20 66.20" xmlns="http://www.w3.org/2000/svg" xmlns:xlink="http://www.w3.org/1999/xlink">
<g id="graph0" class="graph" transform="scale(1 1) rotate(0) translate(21.6 44.6)">
<title>G</title>
<polygon fill="#111111" stroke="transparent" points="-21.6,21.6 -21.6,-44.6 332.6,-44.6 332.6,21.6 -21.6,21.6"/>
<!-- reports/report.entity.ts -->
<g id="node1" class="node">
<title>reports/report.entity.ts</title>
<path fill="none" stroke="#ff6c60" d="M139.33,-23C139.33,-23 7.67,-23 7.67,-23 3.83,-23 0,-19.17 0,-15.33 0,-15.33 0,-7.67 0,-7.67 0,-3.83 3.83,0 7.67,0 7.67,0 139.33,0 139.33,0 143.17,0 147,-3.83 147,-7.67 147,-7.67 147,-15.33 147,-15.33 147,-19.17 143.17,-23 139.33,-23"/>
<text text-anchor="middle" x="73.5" y="-7.8" font-family="Arial" font-size="14.00" fill="#ff6c60">reports/report.entity.ts</text>
</g>
<!-- users/user.entity.ts -->
<g id="node2" class="node">
<title>users/user.entity.ts</title>
<path fill="none" stroke="#ff6c60" d="M303.33,-23C303.33,-23 190.67,-23 190.67,-23 186.83,-23 183,-19.17 183,-15.33 183,-15.33 183,-7.67 183,-7.67 183,-3.83 186.83,0 190.67,0 190.67,0 303.33,0 303.33,0 307.17,0 311,-3.83 311,-7.67 311,-7.67 311,-15.33 311,-15.33 311,-19.17 307.17,-23 303.33,-23"/>
<text text-anchor="middle" x="247" y="-7.8" font-family="Arial" font-size="14.00" fill="#ff6c60">users/user.entity.ts</text>
</g>
<!-- reports/report.entity.ts&#45;&gt;users/user.entity.ts -->
<g id="edge1" class="edge">
<title>reports/report.entity.ts&#45;&gt;users/user.entity.ts</title>
<path fill="none" stroke="#757575" d="M147.23,-4.82C155.67,-4.73 164.28,-4.73 172.72,-4.81"/>
<polygon fill="#757575" stroke="#757575" points="172.87,-8.32 182.92,-4.96 172.97,-1.32 172.87,-8.32"/>
</g>
<!-- users/user.entity.ts&#45;&gt;reports/report.entity.ts -->
<g id="edge2" class="edge">
<title>users/user.entity.ts&#45;&gt;reports/report.entity.ts</title>
<path fill="none" stroke="#757575" d="M182.92,-18.04C174.57,-18.2 165.92,-18.27 157.31,-18.25"/>
<polygon fill="#757575" stroke="#757575" points="157.25,-14.75 147.23,-18.18 157.21,-21.75 157.25,-14.75"/>
</g>
</g>
</svg>
